<svg width="55" height="80" viewBox="0 0 221 320" fill="none" xmlns="http://www.w3.org/2000/svg">
<path d="M85.9205 317.376C82.027 316.993 77.3548 315.082 75.7974 313.361C72.2932 309.347 58.2766 270.349 55.1618 255.247C53.4097 247.027 49.7109 240.336 40.1718 227.146C21.2882 201.148 21.2882 201.53 24.7924 169.223C28.6859 133.858 36.6676 92.1837 42.5079 76.1258C45.0386 69.2439 50.2546 63.6466 50.2546 63.6466C50.2546 63.4554 50.6842 61.5973 55.1618 59.8768C67.4263 54.9065 143.155 54.7154 166.711 59.3033C196.885 65.4206 214.601 77.8463 214.601 92.9483V100.213L188.137 99C164.581 99.1912 134.979 102.889 113.954 105.756L105.583 106.903L110.604 117.173C127.346 135.907 146.27 169.988 146.465 187.957C146.659 217.014 131.28 287.554 119.794 310.494C116.29 317.567 116.095 317.758 104.609 317.949C98.185 318.14 89.814 317.758 85.9205 317.376Z" fill="#312E81"/>
<path d="M103.636 283.478C100.567 283.159 96.8832 281.561 95.6554 280.123C92.8929 276.767 81.8427 244.17 79.3871 231.546C78.0059 224.675 75.0899 219.083 67.5696 208.057C52.6826 186.326 52.6826 186.645 55.4452 159.641C58.5146 130.079 64.8071 95.2451 69.4113 81.8227C71.4065 76.0703 75.5185 71.3916 75.5185 71.3916C75.5185 71.2318 75.8572 69.6787 79.3871 68.2405C89.056 64.086 148.757 63.9262 167.328 67.7612C191.116 72.8745 205.083 83.2608 205.083 95.8843V101.956L184.824 102.276C166.254 102.436 142.312 104.193 125.736 106.59L119.137 107.549L123.096 116.133C136.294 131.792 151.213 160.28 151.367 175.3C151.52 199.588 139.396 258.551 130.341 277.726C127.578 283.638 127.425 283.798 118.37 283.957C113.305 284.117 106.706 283.798 103.636 283.478Z" fill="#C7D2FE"/>
<path d="M121.429 103.724C117.806 97.4054 115.731 66.5417 117 65.0125C120.154 64.1612 150.697 64.1114 164.5 67C188.933 72.0975 215.041 81.5558 215.041 94.9793V100.328L192.149 101.791C171.365 101.961 129.356 102.631 126.5 104.5C125.865 105.01 122.381 106.782 121.429 103.724Z" fill="#F59E0B"/>
<g filter="url(#filter0_d)">
<path d="M122.5 106.771C118 104.331 117.542 91.6296 117 87.6008C116.071 83.0263 127.549 84 130.802 84C132.286 84 150.602 85.3237 171.654 87.6008C171.654 87.6008 205.151 94.7709 207.5 94.7709C209.849 94.7709 210.692 95.4898 212 96.2709C212.5 97.2709 214.609 96.2946 215 97.2709C215 98.2709 215.42 99.2938 215.03 100.661C213.53 100.661 211.989 101.244 210.681 101.619L191 103.271C180.744 103.434 164.511 103.572 153.986 104.873C143.595 106.174 134.31 106.771 133.636 106.771C133.096 106.771 124.048 107.61 122.5 106.771Z" fill="#FCD34D"/>
</g>
<circle cx="97" cy="90" r="15" fill="#312E81"/>
<defs>
<filter id="filter0_d" x="112.947" y="83.9132" width="106.249" height="31.2307" filterUnits="userSpaceOnUse" color-interpolation-filters="sRGB">
<feFlood flood-opacity="0" result="BackgroundImageFix"/>
<feColorMatrix in="SourceAlpha" type="matrix" values="0 0 0 0 0 0 0 0 0 0 0 0 0 0 0 0 0 0 127 0"/>
<feOffset dy="4"/>
<feGaussianBlur stdDeviation="2"/>
<feColorMatrix type="matrix" values="0 0 0 0 0 0 0 0 0 0 0 0 0 0 0 0 0 0 0.25 0"/>
<feBlend mode="normal" in2="BackgroundImageFix" result="effect1_dropShadow"/>
<feBlend mode="normal" in="SourceGraphic" in2="effect1_dropShadow" result="shape"/>
</filter>
</defs>
</svg>
